<svg viewBox="0 0 81 81" fill="none" xmlns="http://www.w3.org/2000/svg">
<path fill-rule="evenodd" clip-rule="evenodd" d="M34.6138 21.5857C37.0707 7.94609 46.0823 -3.21731 55.7757 0.96629C66.7651 5.70594 73.6978 26.4881 69.4169 48.0716C79.998 57.0196 85.1617 70.406 76.6925 76.7098C67.0926 83.8569 45.6301 79.4713 29.0801 64.9727C16.0388 69.6628 1.86488 67.4418 0.638753 56.9531C-0.751698 45.0664 13.7814 28.6695 34.6138 21.5857ZM36.3232 21.0299C38.1058 20.4768 39.9312 19.9923 41.7937 19.5849C42.9515 19.3334 43.3956 20.0668 42.3265 20.5799C33.7317 24.5094 27.0175 29.0396 22.0647 33.6578C23.4056 33.9507 24.6544 34.5676 25.702 35.4544C26.7495 36.3413 27.5639 37.4712 28.0741 38.7453C28.5842 40.0195 28.7746 41.3993 28.6286 42.764C28.4825 44.1288 28.0045 45.437 27.2363 46.5744C26.468 47.7117 25.4329 48.6437 24.2215 49.2888C23.01 49.9339 21.659 50.2725 20.2864 50.2751C18.9139 50.2776 17.5616 49.944 16.3478 49.3034C15.1339 48.6628 14.0954 47.7347 13.3229 46.6002C13.1748 46.3831 13.0421 46.1605 12.9167 45.9357C8.3256 56.6555 13.8039 65.1322 27.7412 63.7674C26.3708 62.5 25.0384 61.1611 23.7542 59.7516C22.9571 58.8767 23.3688 58.1246 24.3482 58.7957C32.0493 64.2749 39.3303 67.8245 45.8067 69.8041C45.3894 68.4965 45.2988 67.1066 45.5427 65.7559C45.7865 64.4051 46.3575 63.1347 47.2057 62.0555C48.0539 60.9764 49.1534 60.1214 50.4083 59.5653C51.6631 59.0091 53.0351 58.7688 54.4042 58.8653C55.7734 58.9617 57.0981 59.392 58.2626 60.1186C59.4271 60.8452 60.3959 61.8459 61.0844 63.0333C61.7729 64.2207 62.1601 65.5586 62.2122 66.9302C62.2643 68.3018 61.9797 69.6652 61.3832 70.9014C61.2697 71.1385 61.1432 71.3654 61.0104 71.5868C72.591 70.2031 77.1936 61.22 69.0431 49.8318C68.6307 51.6529 68.1373 53.4767 67.5587 55.2942C67.1978 56.4216 66.3414 56.4398 66.4324 55.2564C67.3267 45.8477 66.7607 37.7671 65.2369 31.1688C64.3128 32.1835 63.1543 32.9566 61.8626 33.4204C60.5709 33.8842 59.1852 34.0246 57.8267 33.8293C56.4682 33.6341 55.1782 33.1092 54.0694 32.3004C52.9605 31.4916 52.0666 30.4236 51.4657 29.1896C50.8649 27.9557 50.5753 26.5934 50.6224 25.2217C50.6694 23.8501 51.0516 22.5108 51.7356 21.321C52.4197 20.1311 53.3846 19.1268 54.5463 18.3959C55.7079 17.665 57.0309 17.2297 58.3996 17.128C58.6614 17.1081 58.9208 17.1043 59.1788 17.1087C52.1909 7.77193 42.1112 8.27719 36.3232 21.0299Z" fill="#157F8D"/>
</svg>
